<svg fill="none" height="228" viewBox="0 0 450 228" width="450" xmlns="http://www.w3.org/2000/svg"><g fill="#f00"><path clip-rule="evenodd" d="m381.177 189.897c40.038-20.224 62.947-47.25 62.947-75.648 0-28.3976-22.909-55.4234-62.947-75.6475-39.752-20.0804-95.02-32.64593-156.34-32.64593s-116.588 12.56553-156.3407 32.64593c-40.0377 20.2241-62.9465 47.2499-62.9465 75.6475 0 28.398 22.9088 55.424 62.9465 75.648 39.7527 20.08 95.0207 32.646 156.3407 32.646s116.588-12.566 156.34-32.646zm-156.34 37.646c123.87 0 224.287-50.723 224.287-113.294 0-62.5701-100.417-113.293434-224.287-113.293434s-224.287195 50.723334-224.287195 113.293434c0 62.571 100.417195 113.294 224.287195 113.294z" fill-rule="evenodd"/><path d="m420.725 120.415c.399-2.066 1.408-3.54 3.028-4.42 1.636-.877 3.821-1.051 6.556-.524 2.734.528 4.721 1.508 5.959 2.939 1.255 1.435 1.682 3.185 1.284 5.252-.264 1.367-.795 2.449-1.594 3.246-.801.812-1.818 1.365-3.051 1.659l-.65-1.769c.902-.164 1.666-.533 2.292-1.105.641-.569 1.06-1.359 1.255-2.368.135-.7.124-1.354-.032-1.965-.16-.594-.45-1.134-.872-1.618-.41-.466-.937-.866-1.582-1.2-.629-.331-1.363-.577-2.202-.739l-2.424-.468c-1.678-.324-3.066-.189-4.163.405-1.098.594-1.783 1.598-2.056 3.012-.201 1.041-.105 1.962.289 2.763.408.804 1.024 1.455 1.847 1.952l-1.28 1.373c-1.051-.735-1.818-1.648-2.3-2.74-.467-1.09-.568-2.318-.304-3.685z"/><path d="m413.885 137.505 5.058 1.046 3.392-5.77-3.373-3.91 1.023-1.74 11.346 13.39-1.287 2.189-17.217-3.404zm15.201 3.183.06-.103-5.537-6.504-2.9 4.931z"/><path d="m410.276 142.328 12.091 11.327-1.363 1.455-10.809-10.126-4.82 5.144-1.281-1.2z"/><path d="m401.454 151.301 10.405 12.892-1.551 1.253-9.303-11.526-5.485 4.428-1.103-1.367z"/><path d="m381.563 181.25.104-.057-.11-3.108.001-8.233 6.948 4.416 2.564 1.76.104-.057-6.719-12.233 1.706-.937 7.976 14.522-2.33 1.279-8.457-5.537-.104.058.114 10.119-2.246 1.234-7.976-14.521 1.706-.937z"/><path d="m366.581 173.1 6.526 15.228-9.294 3.983-.692-1.615 7.462-3.198-2.188-5.105-7.025 3.011-.692-1.614 7.025-3.011-2.263-5.28-7.461 3.198-.692-1.614z"/><path d="m343.966 182.103 8.729 14.648-2.019.622-7.184-12.615-.046.014.348 6.374.349 8.237-2.178.67-4.274-7.029-3.289-5.445-.068.021.453 6.318.554 8.173-1.951.601-.812-17.084 2.11-.65 4.493 7.26 3.239 5.361.046-.014-.29-6.269-.319-8.543z"/><path d="m320.559 188.871 1.941-.455 3.784 16.129-6.424 1.507c-1.418.333-2.611.198-3.581-.403-.986-.598-1.652-1.636-1.999-3.115-.278-1.186-.23-2.23.144-3.13.362-.881 1.045-1.57 2.051-2.066l-5.367-6.25 2.195-.515 5.116 6.114 3.766-.883zm-2.466 9.648c-.771.181-1.317.52-1.639 1.018-.337.502-.419 1.123-.246 1.862l.282 1.202c.174.739.523 1.259 1.048 1.558.51.303 1.15.364 1.921.183l4.483-1.051-1.366-5.824z"/><path d="m305.686 192.213.312 1.632-2.285.436 2.484 13.01 2.284-.437.312 1.632-6.528 1.247-.312-1.632 2.285-.437-2.483-13.009-2.285.436-.312-1.632z"/><path d="m290.667 209.892-2.246-14.64 1.97-.302 2.246 14.64 5.209-.799.266 1.736-12.387 1.9-.267-1.736z"/><path d="m278.356 196.692 1.872 16.461-10.047 1.143-.198-1.746 8.065-.917-.627-5.518-7.594.863-.198-1.745 7.593-.863-.648-5.708-8.066.917-.198-1.745z"/><path d="m243.842 213.546.118-.006 1.26-2.844 3.599-7.404 4.319 7.009 1.537 2.704.119-.006-.696-13.939 1.944-.097.826 16.546-2.655.133-5.186-8.677-.119.006-4.32 9.152-2.56.128-.826-16.547 1.944-.097z"/><path d="m233.45 199.918.118 16.567-10.111.072-.012-1.756 8.117-.058-.039-5.554-7.643.054-.013-1.756 7.643-.055-.041-5.743-8.117.057-.013-1.756z"/><path d="m204.308 199.207c2.102.098 3.705.885 4.809 2.362 1.103 1.492 1.59 3.63 1.461 6.412s-.813 4.888-2.052 6.32c-1.239 1.447-2.91 2.122-5.012 2.025-1.391-.065-2.538-.435-3.441-1.11-.919-.676-1.613-1.603-2.081-2.782l1.657-.897c.293.869.767 1.572 1.423 2.109.656.554 1.497.854 2.525.902.711.033 1.357-.072 1.939-.314.565-.243 1.058-.609 1.476-1.096.402-.473.722-1.052.96-1.738.237-.67.375-1.432.415-2.285l.114-2.466c.079-1.707-.254-3.061-1-4.062-.745-1.001-1.837-1.535-3.276-1.602-1.059-.049-1.956.179-2.693.683-.737.521-1.292 1.224-1.666 2.109l-1.542-1.069c.576-1.146 1.369-2.036 2.381-2.67 1.011-.618 2.212-.895 3.603-.831z"/><path d="m182.944 197.978 1.227 5.017 6.668.586 2.083-4.725 2.01.176-7.22 15.997-2.53-.223-4.318-17.01zm3.653 15.094.118.011 3.497-7.794-5.698-.501z"/><path d="m175.311 197.165-2.083 16.436-1.978-.251 1.862-14.693-6.993-.887.221-1.742z"/><path d="m161.952 195.385-2.667 16.351-1.968-.321 2.385-14.618-6.958-1.135.283-1.733z"/><path d="m126.427 202.576.116.027 1.997-2.384 5.508-6.119 2.211 7.93.729 3.023.115.027 3.188-13.587 1.895.444-3.784 16.13-2.588-.607-2.584-9.773-.115-.027-6.683 7.599-2.496-.586 3.784-16.129 1.895.444z"/><path d="m120.398 186.58-4.767 15.867-9.683-2.91.505-1.682 7.774 2.336 1.598-5.319-7.319-2.199.505-1.682 7.32 2.199 1.652-5.502-7.774-2.335.505-1.682z"/><path d="m97.2323 179.084-2.685 16.839-1.9481-.816 2.5679-14.289-.0438-.018-3.8182 5.116-5.01 6.547-2.1014-.881 1.2231-8.135.9635-6.287-.0657-.028-3.6996 5.141-4.813 6.629-1.8825-.789 10.3243-13.636 2.0357.854-1.2019 8.452-.9486 6.191.0438.019 3.7942-4.998 5.2296-6.764z"/><path d="m75.3144 169.301 1.7445.965-8.0211 14.496-5.7736-3.194c-1.2737-.705-2.0683-1.606-2.3837-2.703-.3293-1.104-.1262-2.321.6093-3.65.5899-1.066 1.3256-1.808 2.2071-2.224.8599-.411 1.8289-.462 2.9068-.155l.2165-8.235 1.973 1.091-.3115 7.966 3.3852 1.873zm-8.3039 5.496c-.6923-.383-1.3249-.498-1.8979-.345-.5869.146-1.0642.551-1.4319 1.215l-.5976 1.08c-.3677.665-.4573 1.284-.2689 1.859.1747.567.6081 1.042 1.3004 1.425l4.0291 2.229 2.8958-5.233z"/><path d="m62.5389 161.958-.9389 1.371-1.9191-1.315-7.4841 10.927 1.9191 1.315-.9389 1.371-5.4831-3.756.9389-1.371 1.9191 1.315 7.4841-10.927-1.9191-1.315.9389-1.371z"/><path d="m39.381 163.119 9.6927-11.199 1.5076 1.305-9.6928 11.199 3.9842 3.448-1.1494 1.329-9.476-8.202 1.1494-1.328z"/><path d="m42.4814 145.963-12.9064 10.387-6.3397-7.877 1.3683-1.101 5.0896 6.324 4.3268-3.482-4.792-5.954 1.3683-1.102 4.792 5.954 4.4747-3.601-5.0896-6.324 1.3683-1.101z"/><path d="m14.5389 121.3.0253.116 3.0118.776 7.8948 2.334-6.2045 5.412-2.4146 1.96.0253.116 13.6356-2.976.415 1.902-16.1865 3.532-.5668-2.597 7.7072-6.541-.0253-.116-9.7366-2.758-.5465-2.505 16.1864-3.532.415 1.901z"/><path d="m27.7502 111.706-16.1277-3.791 2.3142-9.8433 1.7098.402-1.8579 7.9023 5.4067 1.271 1.7493-7.44 1.7098.402-1.7493 7.44 5.5916 1.315 1.8578-7.902 1.7099.402z"/><path d="m37.6025 89.124c-1.2722 1.6765-2.8294 2.5508-4.6717 2.6228-1.8549.0624-3.8917-.7481-6.1103-2.4315-2.2185-1.6835-3.5664-3.4411-4.0435-5.273-.4898-1.8415-.0986-3.6005 1.1735-5.2771.8418-1.1093 1.7969-1.8445 2.8654-2.2056 1.0782-.3738 2.2351-.4195 3.471-.1373l-.2004 1.874c-.8815-.2518-1.7297-.2597-2.5443-.0237-.8273.2264-1.5518.7493-2.1735 1.5687-.4304.5672-.7107 1.159-.8407 1.7755-.1205.6038-.0986 1.2163.0657 1.8375.1612.599.457 1.1909.8873 1.7756.4177.5752.9669 1.121 1.6476 1.6375l1.9664 1.4922c1.3615 1.033 2.6658 1.5261 3.9129 1.4792 1.2472-.0468 2.306-.6438 3.1764-1.7909.6409-.8446.9622-1.7131.964-2.6055-.0107-.9021-.275-1.758-.7926-2.5679l1.7554-.6643c.6172 1.1238.9003 2.2821.8493 3.4749-.0636 1.1833-.5162 2.3296-1.3579 3.4389z"/><path d="m51.1501 74.7647-4.4677-2.59-5.0416 4.4027 1.9648 4.7757-1.5197 1.3271-6.5353-16.2883 1.913-1.6706 15.2598 8.6695zm-13.4163-7.8214-.0894.078 3.1987 7.9209 4.3086-3.7627z"/><path d="m56.0688 70.9153-9.2116-13.7704 1.6572-1.1086 8.235 12.3106 5.8593-3.9195.9766 1.4599z"/><path d="m67.071 63.7428-7.9757-14.5212 1.7475-.9598 7.1302 12.9817 6.1788-3.3937.8456 1.5395z"/><path d="m91.8603 36.6481-.1103.0439-.2733 3.0982-1.0124 8.1702-6.3525-5.2366-2.3287-2.0617-.1102.0439 5.1646 12.9658-1.8082.7202-6.1307-15.3913 2.4696-.9838 7.7127 6.5344.1102-.0439 1.1297-10.0565 2.3814-.9486 6.1308 15.3913-1.8082.7203z"/><path d="m104.852 46.731-5.0148-15.7904 9.6368-3.0603.532 1.6741-7.737 2.4568 1.681 5.2936 7.284-2.3131.532 1.674-7.284 2.3132 1.738 5.4746 7.737-2.4569.532 1.6741z"/><path d="m128.652 39.6663-7.558-15.2853 2.061-.4616 6.177 13.1378.047-.0104.151-6.3824.296-8.2388 2.223-.4979 3.712 7.3415 2.854 5.685.069-.0156.042-6.3332.087-8.1922 1.992-.446-.526 17.0954-2.154.4823-3.913-7.5883-2.81-5.5975-.046.0103-.201 6.2718-.349 8.5427z"/><path d="m151.966 34.7435-1.968.321-2.667-16.3513 6.512-1.0623c1.437-.2344 2.618-.0183 3.545.6482.942.664 1.535 1.7457 1.78 3.2449.196 1.2025.077 2.2401-.358 3.1127-.422.8544-1.151 1.4944-2.188 1.9201l4.925 6.6037-2.226.3631-4.683-6.4508-3.819.6229zm3.123-9.4558c.781-.1274 1.349-.4285 1.704-.9033.371-.4774.496-1.0909.373-1.8405l-.198-1.2182c-.123-.7496-.436-1.2918-.939-1.6265-.488-.3373-1.122-.4422-1.903-.3148l-4.545.7414.963 5.9033z"/><path d="m168.39 32.1984-.203-1.6491 2.309-.284-1.617-13.1453-2.309.284-.203-1.649 6.597-.8115.202 1.649-2.308.284 1.617 13.1454 2.309-.2841.202 1.6491z"/><path d="m184.393 15.5273 1.324 14.7517-1.986.1782-1.324-14.7517-5.248.4709-.157-1.7494 12.482-1.1201.157 1.7494z"/><path d="m194.884 29.5006-.885-16.5437 10.097-.5406.093 1.754-8.106.4339.297 5.5462 7.632-.4086.094 1.7539-7.632.4086.307 5.7358 8.106-.434.094 1.754z"/><path d="m231.131 14.6074-.118-.0008-1.42 2.767-4.015 7.1872-3.913-7.2436-1.38-2.787-.119-.0008-.099 13.9561-1.947-.0138.118-16.567 2.659.0189 4.683 8.9581.119.0009 4.834-8.8904 2.563.0182-.118 16.567-1.946-.0138z"/><path d="m241.586 28.8061.856-16.5452 10.098.5224-.091 1.7541-8.107-.4195-.287 5.5467 7.633.3949-.091 1.7541-7.632-.3949-.297 5.7364 8.107.4194-.091 1.7541z"/><path d="m269.273 31.0807c-2.093-.2224-3.646-1.1036-4.66-2.6435-1.012-1.5556-1.371-3.7181-1.077-6.4875.295-2.7694 1.103-4.8317 2.424-6.1871 1.323-1.371 3.031-1.9454 5.124-1.723 1.385.1472 2.508.5848 3.369 1.3129.878.7297 1.515 1.6965 1.912 2.9003l-1.708.7972c-.24-.8848-.672-1.6149-1.295-2.1904-.621-.5911-1.443-.9411-2.466-1.0498-.708-.0752-1.36-.0092-1.954.1981-.58.209-1.093.5443-1.54 1.006-.429.4477-.783 1.0068-1.061 1.6774-.276.6549-.46 1.4071-.55 2.2568l-.261 2.4547c-.181 1.6994.072 3.0708.756 4.1143.685 1.0434 1.743 1.6412 3.175 1.7934 1.054.1121 1.964-.0618 2.729-.5215.767-.4755 1.363-1.1441 1.789-2.0059l1.476 1.1594c-.643 1.1092-1.489 1.9502-2.536 2.5232-1.046.5572-2.261.7622-3.646.615z"/><path d="m290.928 33.627-.911-5.0832-6.617-1.0026-2.376 4.5854-1.994-.3022 8.207-15.5129 2.511.3804 3.245 17.248zm-2.701-15.2931-.117-.0177-3.978 7.5594 5.656.8569z"/><path d="m298.328 34.8649 3.17-16.2613 1.957.3815-2.834 14.5373 6.92 1.3488-.336 1.724z"/><path d="m310.796 37.3382 3.783-16.1296 1.941.4554-3.382 14.4195 6.863 1.61-.401 1.71z"/><path d="m347.3 32.8934-.113-.0364-2.185 2.213-5.988 5.6504-1.557-8.084-.48-3.0728-.113-.0365-4.285 13.2826-1.852-.5974 5.086-15.7675 2.53.8161 1.778 9.9509.113.0364 7.28-7.0291 2.44.7869-5.086 15.7675-1.852-.5975z"/><path d="m351.857 49.2543 6.248-15.3441 9.365 3.8133-.662 1.6267-7.519-3.0613-2.094 5.144 7.078 2.8823-.662 1.6267-7.079-2.8823-2.166 5.3199 7.518 3.0613-.662 1.6268z"/><path d="m374.039 58.8709 4.804-16.3609 1.829 1.0579-4.364 13.8461.041.0238 4.438-4.5895 5.802-5.857 1.972 1.1411-2.248 7.9134-1.755 6.1142.062.0357 4.323-4.6284 5.617-5.964 1.767 1.0223-11.975 12.2124-1.91-1.1054 2.267-8.2312 1.728-6.0202-.041-.0238-4.399 4.4749-6.047 6.0441z"/><path d="m394.326 71.4184-1.546-1.2587 10.459-12.8483 5.117 4.1658c1.129.919 1.752 1.9462 1.868 3.0816.129 1.1453-.286 2.307-1.245 3.4851-.769.9449-1.625 1.5443-2.566 1.7982-.919.2517-1.882.131-2.888-.3619l-1.67 8.067-1.749-1.4236 1.716-7.7849-3.001-2.4425zm9.145-3.9405c.614.4995 1.216.7246 1.807.6753.604-.0394 1.145-.3535 1.625-.9426l.779-.9572c.479-.589.677-1.1829.593-1.7817-.071-.5888-.414-1.1329-1.027-1.6324l-3.571-2.9071-3.777 4.6387z"/><path d="m405.412 80.8711 1.236-1.1106 1.554 1.7302 9.852-8.8528-1.555-1.7301 1.236-1.1105 4.442 4.9432-1.236 1.1105-1.555-1.7301-9.851 8.8527 1.555 1.7301-1.236 1.1106z"/><path d="m428.07 85.9048-12.718 7.5904-1.022-1.712 12.719-7.5904-2.701-4.5247 1.508-.9002 6.423 10.7615-1.508.9002z"/><path d="m419.114 99.9682 16.096-3.9205 2.393 9.8243-1.706.415-1.921-7.8865-5.397 1.3143 1.809 7.4262-1.707.415-1.808-7.426-5.581 1.36 1.921 7.887-1.707.415z"/></g></svg>