<svg width="450" height="228" viewBox="0 0 450 228" fill="none" xmlns="http://www.w3.org/2000/svg">
<path fill-rule="evenodd" clip-rule="evenodd" d="M381.177 189.897C421.215 169.673 444.124 142.647 444.124 114.249C444.124 85.8514 421.215 58.8256 381.177 38.6015C341.425 18.5211 286.157 5.95557 224.837 5.95557C163.517 5.95557 108.249 18.5211 68.4963 38.6015C28.4586 58.8256 5.5498 85.8514 5.5498 114.249C5.5498 142.647 28.4586 169.673 68.4963 189.897C108.249 209.977 163.517 222.543 224.837 222.543C286.157 222.543 341.425 209.977 381.177 189.897ZM224.837 227.543C348.707 227.543 449.124 176.82 449.124 114.249C449.124 51.6789 348.707 0.955566 224.837 0.955566C100.967 0.955566 0.549805 51.6789 0.549805 114.249C0.549805 176.82 100.967 227.543 224.837 227.543Z" fill="#FF0000"/>
<path d="M420.725 120.415C421.124 118.349 422.133 116.875 423.753 115.995C425.389 115.118 427.574 114.944 430.309 115.471C433.043 115.999 435.03 116.979 436.268 118.41C437.523 119.845 437.95 121.595 437.552 123.662C437.288 125.029 436.757 126.111 435.958 126.908C435.157 127.72 434.14 128.273 432.907 128.567L432.257 126.798C433.159 126.634 433.923 126.265 434.549 125.693C435.19 125.124 435.609 124.334 435.804 123.325C435.939 122.625 435.928 121.971 435.772 121.36C435.612 120.766 435.322 120.226 434.9 119.742C434.49 119.276 433.963 118.876 433.318 118.542C432.689 118.211 431.955 117.965 431.116 117.803L428.692 117.335C427.014 117.011 425.626 117.146 424.529 117.74C423.431 118.334 422.746 119.338 422.473 120.752C422.272 121.793 422.368 122.714 422.762 123.515C423.17 124.319 423.786 124.97 424.609 125.467L423.329 126.84C422.278 126.105 421.511 125.192 421.029 124.1C420.562 123.01 420.461 121.782 420.725 120.415Z" fill="#FF0000"/>
<path d="M413.885 137.505L418.943 138.551L422.335 132.781L418.962 128.871L419.985 127.131L431.331 140.521L430.044 142.71L412.827 139.306L413.885 137.505ZM429.086 140.688L429.146 140.585L423.609 134.081L420.709 139.012L429.086 140.688Z" fill="#FF0000"/>
<path d="M410.276 142.328L422.367 153.655L421.004 155.11L410.195 144.984L405.375 150.128L404.094 148.928L410.276 142.328Z" fill="#FF0000"/>
<path d="M401.454 151.301L411.859 164.193L410.308 165.446L401.005 153.92L395.52 158.348L394.417 156.981L401.454 151.301Z" fill="#FF0000"/>
<path d="M381.563 181.25L381.667 181.193L381.557 178.085L381.558 169.852L388.506 174.268L391.07 176.028L391.174 175.971L384.455 163.738L386.161 162.801L394.137 177.323L391.807 178.602L383.35 173.065L383.246 173.123L383.36 183.242L381.114 184.476L373.138 169.955L374.844 169.018L381.563 181.25Z" fill="#FF0000"/>
<path d="M366.581 173.1L373.107 188.328L363.813 192.311L363.121 190.696L370.583 187.498L368.395 182.393L361.37 185.404L360.678 183.79L367.703 180.779L365.44 175.499L357.979 178.697L357.287 177.083L366.581 173.1Z" fill="#FF0000"/>
<path d="M343.966 182.103L352.695 196.751L350.676 197.373L343.492 184.758L343.446 184.772L343.794 191.146L344.143 199.383L341.965 200.053L337.691 193.024L334.402 187.579L334.334 187.6L334.787 193.918L335.341 202.091L333.39 202.692L332.578 185.608L334.688 184.958L339.181 192.218L342.42 197.579L342.466 197.565L342.176 191.296L341.857 182.753L343.966 182.103Z" fill="#FF0000"/>
<path d="M320.559 188.871L322.5 188.416L326.284 204.545L319.86 206.052C318.442 206.385 317.249 206.25 316.279 205.649C315.293 205.051 314.627 204.013 314.28 202.534C314.002 201.348 314.05 200.304 314.424 199.404C314.786 198.523 315.469 197.834 316.475 197.338L311.108 191.088L313.303 190.573L318.419 196.687L322.185 195.804L320.559 188.871ZM318.093 198.519C317.322 198.7 316.776 199.039 316.454 199.537C316.117 200.039 316.035 200.66 316.208 201.399L316.49 202.601C316.664 203.34 317.013 203.86 317.538 204.159C318.048 204.462 318.688 204.523 319.459 204.342L323.942 203.291L322.576 197.467L318.093 198.519Z" fill="#FF0000"/>
<path d="M305.686 192.213L305.998 193.845L303.713 194.281L306.197 207.291L308.481 206.854L308.793 208.486L302.265 209.733L301.953 208.101L304.238 207.664L301.755 194.655L299.47 195.091L299.158 193.459L305.686 192.213Z" fill="#FF0000"/>
<path d="M290.667 209.892L288.421 195.252L290.391 194.95L292.637 209.59L297.846 208.791L298.112 210.527L285.725 212.427L285.458 210.691L290.667 209.892Z" fill="#FF0000"/>
<path d="M278.356 196.692L280.228 213.153L270.181 214.296L269.983 212.55L278.048 211.633L277.421 206.115L269.827 206.978L269.629 205.233L277.222 204.37L276.574 198.662L268.508 199.579L268.31 197.834L278.356 196.692Z" fill="#FF0000"/>
<path d="M243.842 213.546L243.96 213.54L245.22 210.696L248.819 203.292L253.138 210.301L254.675 213.005L254.794 212.999L254.098 199.06L256.042 198.963L256.868 215.509L254.213 215.642L249.027 206.965L248.908 206.971L244.588 216.123L242.028 216.251L241.202 199.704L243.146 199.607L243.842 213.546Z" fill="#FF0000"/>
<path d="M233.45 199.918L233.568 216.485L223.457 216.557L223.445 214.801L231.562 214.743L231.523 209.189L223.88 209.243L223.867 207.487L231.51 207.432L231.469 201.689L223.352 201.746L223.339 199.99L233.45 199.918Z" fill="#FF0000"/>
<path d="M204.308 199.207C206.41 199.305 208.013 200.092 209.117 201.569C210.22 203.061 210.707 205.199 210.578 207.981C210.449 210.763 209.765 212.869 208.526 214.301C207.287 215.748 205.616 216.423 203.514 216.326C202.123 216.261 200.976 215.891 200.073 215.216C199.154 214.54 198.46 213.613 197.992 212.434L199.649 211.537C199.942 212.406 200.416 213.109 201.072 213.646C201.728 214.2 202.569 214.5 203.597 214.548C204.308 214.581 204.954 214.476 205.536 214.234C206.101 213.991 206.594 213.625 207.012 213.138C207.414 212.665 207.734 212.086 207.972 211.4C208.209 210.73 208.347 209.968 208.387 209.115L208.501 206.649C208.58 204.942 208.247 203.588 207.501 202.587C206.756 201.586 205.664 201.052 204.225 200.985C203.166 200.936 202.269 201.164 201.532 201.668C200.795 202.189 200.24 202.892 199.866 203.777L198.324 202.708C198.9 201.562 199.693 200.672 200.705 200.038C201.716 199.42 202.917 199.143 204.308 199.207Z" fill="#FF0000"/>
<path d="M182.944 197.978L184.171 202.995L190.839 203.581L192.922 198.856L194.932 199.032L187.712 215.029L185.182 214.806L180.864 197.796L182.944 197.978ZM186.597 213.072L186.715 213.083L190.212 205.289L184.514 204.788L186.597 213.072Z" fill="#FF0000"/>
<path d="M175.311 197.165L173.228 213.601L171.25 213.35L173.112 198.657L166.119 197.77L166.34 196.028L175.311 197.165Z" fill="#FF0000"/>
<path d="M161.952 195.385L159.285 211.736L157.317 211.415L159.702 196.797L152.744 195.662L153.027 193.929L161.952 195.385Z" fill="#FF0000"/>
<path d="M126.427 202.576L126.543 202.603L128.54 200.219L134.048 194.1L136.259 202.03L136.988 205.053L137.103 205.08L140.291 191.493L142.186 191.937L138.402 208.067L135.814 207.46L133.23 197.687L133.115 197.66L126.432 205.259L123.936 204.673L127.72 188.544L129.615 188.988L126.427 202.576Z" fill="#FF0000"/>
<path d="M120.398 186.58L115.631 202.447L105.948 199.537L106.453 197.855L114.227 200.191L115.825 194.872L108.506 192.673L109.011 190.991L116.331 193.19L117.983 187.688L110.209 185.353L110.714 183.671L120.398 186.58Z" fill="#FF0000"/>
<path d="M97.2323 179.084L94.5473 195.923L92.5992 195.107L95.1671 180.818L95.1233 180.8L91.3051 185.916L86.2951 192.463L84.1937 191.582L85.4168 183.447L86.3803 177.16L86.3146 177.132L82.615 182.273L77.802 188.902L75.9195 188.113L86.2438 174.477L88.2795 175.331L87.0776 183.783L86.129 189.974L86.1728 189.993L89.967 184.995L95.1966 178.231L97.2323 179.084Z" fill="#FF0000"/>
<path d="M75.3144 169.301L77.0589 170.266L69.0378 184.762L63.2642 181.568C61.9905 180.863 61.1959 179.962 60.8805 178.865C60.5512 177.761 60.7543 176.544 61.4898 175.215C62.0797 174.149 62.8154 173.407 63.6969 172.991C64.5568 172.58 65.5258 172.529 66.6037 172.836L66.8202 164.601L68.7932 165.692L68.4817 173.658L71.8669 175.531L75.3144 169.301ZM67.0105 174.797C66.3182 174.414 65.6856 174.299 65.1126 174.452C64.5257 174.598 64.0484 175.003 63.6807 175.667L63.0831 176.747C62.7154 177.412 62.6258 178.031 62.8142 178.606C62.9889 179.173 63.4223 179.648 64.1146 180.031L68.1437 182.26L71.0395 177.027L67.0105 174.797Z" fill="#FF0000"/>
<path d="M62.5389 161.958L61.6 163.329L59.6809 162.014L52.1968 172.941L54.1159 174.256L53.177 175.627L47.6939 171.871L48.6328 170.5L50.5519 171.815L58.036 160.888L56.1169 159.573L57.0558 158.202L62.5389 161.958Z" fill="#FF0000"/>
<path d="M39.381 163.119L49.0737 151.92L50.5813 153.225L40.8885 164.424L44.8727 167.872L43.7233 169.201L34.2473 160.999L35.3967 159.671L39.381 163.119Z" fill="#FF0000"/>
<path d="M42.4814 145.963L29.575 156.35L23.2353 148.473L24.6036 147.372L29.6932 153.696L34.02 150.214L29.228 144.26L30.5963 143.158L35.3883 149.112L39.863 145.511L34.7734 139.187L36.1417 138.086L42.4814 145.963Z" fill="#FF0000"/>
<path d="M14.5389 121.3L14.5642 121.416L17.576 122.192L25.4708 124.526L19.2663 129.938L16.8517 131.898L16.877 132.014L30.5126 129.038L30.9276 130.94L14.7411 134.472L14.1743 131.875L21.8815 125.334L21.8562 125.218L12.1196 122.46L11.5731 119.955L27.7595 116.423L28.1745 118.324L14.5389 121.3Z" fill="#FF0000"/>
<path d="M27.7502 111.706L11.6225 107.915L13.9367 98.0717L15.6465 98.4737L13.7886 106.376L19.1953 107.647L20.9446 100.207L22.6544 100.609L20.9051 108.049L26.4967 109.364L28.3545 101.462L30.0644 101.864L27.7502 111.706Z" fill="#FF0000"/>
<path d="M37.6025 89.124C36.3303 90.8005 34.7731 91.6748 32.9308 91.7468C31.0759 91.8092 29.0391 90.9987 26.8205 89.3153C24.602 87.6318 23.2541 85.8742 22.777 84.0423C22.2872 82.2008 22.6784 80.4418 23.9505 78.7652C24.7923 77.6559 25.7474 76.9207 26.8159 76.5596C27.8941 76.1858 29.051 76.1401 30.2869 76.4223L30.0865 78.2963C29.205 78.0445 28.3568 78.0366 27.5422 78.2726C26.7149 78.499 25.9904 79.0219 25.3687 79.8413C24.9383 80.4085 24.658 81.0003 24.528 81.6168C24.4075 82.2206 24.4294 82.8331 24.5937 83.4543C24.7549 84.0533 25.0507 84.6452 25.481 85.2299C25.8987 85.8051 26.4479 86.3509 27.1286 86.8674L29.095 88.3596C30.4565 89.3926 31.7608 89.8857 33.0079 89.8388C34.2551 89.792 35.3139 89.195 36.1843 88.0479C36.8252 87.2033 37.1465 86.3348 37.1483 85.4424C37.1376 84.5403 36.8733 83.6844 36.3557 82.8745L38.1111 82.2102C38.7283 83.334 39.0114 84.4923 38.9604 85.6851C38.8968 86.8684 38.4442 88.0147 37.6025 89.124Z" fill="#FF0000"/>
<path d="M51.1501 74.7647L46.6824 72.1747L41.6408 76.5774L43.6056 81.3531L42.0859 82.6802L35.5506 66.3919L37.4636 64.7213L52.7234 73.3908L51.1501 74.7647ZM37.7338 66.9433L37.6444 67.0213L40.8431 74.9422L45.1517 71.1795L37.7338 66.9433Z" fill="#FF0000"/>
<path d="M56.0688 70.9153L46.8572 57.1449L48.5144 56.0363L56.7494 68.3469L62.6087 64.4274L63.5853 65.8873L56.0688 70.9153Z" fill="#FF0000"/>
<path d="M67.071 63.7428L59.0953 49.2216L60.8428 48.2618L67.973 61.2435L74.1518 57.8498L74.9974 59.3893L67.071 63.7428Z" fill="#FF0000"/>
<path d="M91.8603 36.6481L91.75 36.692L91.4767 39.7902L90.4643 47.9604L84.1118 42.7238L81.7831 40.6621L81.6729 40.706L86.8375 53.6718L85.0293 54.392L78.8986 39.0007L81.3682 38.0169L89.0809 44.5513L89.1911 44.5074L90.3208 34.4509L92.7022 33.5023L98.833 48.8936L97.0248 49.6139L91.8603 36.6481Z" fill="#FF0000"/>
<path d="M104.852 46.731L99.8372 30.9406L109.474 27.8803L110.006 29.5544L102.269 32.0112L103.95 37.3048L111.234 34.9917L111.766 36.6657L104.482 38.9789L106.22 44.4535L113.957 41.9966L114.489 43.6707L104.852 46.731Z" fill="#FF0000"/>
<path d="M128.652 39.6663L121.094 24.381L123.155 23.9194L129.332 37.0572L129.379 37.0468L129.53 30.6644L129.826 22.4256L132.049 21.9277L135.761 29.2692L138.615 34.9542L138.684 34.9386L138.726 28.6054L138.813 20.4132L140.805 19.9672L140.279 37.0626L138.125 37.5449L134.212 29.9566L131.402 24.3591L131.356 24.3694L131.155 30.6412L130.806 39.1839L128.652 39.6663Z" fill="#FF0000"/>
<path d="M151.966 34.7435L149.998 35.0645L147.331 18.7132L153.843 17.6509C155.28 17.4165 156.461 17.6326 157.388 18.2991C158.33 18.9631 158.923 20.0448 159.168 21.544C159.364 22.7465 159.245 23.7841 158.81 24.6567C158.388 25.5111 157.659 26.1511 156.622 26.5768L161.547 33.1805L159.321 33.5436L154.638 27.0928L150.819 27.7157L151.966 34.7435ZM155.089 25.2877C155.87 25.1603 156.438 24.8592 156.793 24.3844C157.164 23.907 157.289 23.2935 157.166 22.5439L156.968 21.3257C156.845 20.5761 156.532 20.0339 156.029 19.6992C155.541 19.3619 154.907 19.257 154.126 19.3844L149.581 20.1258L150.544 26.0291L155.089 25.2877Z" fill="#FF0000"/>
<path d="M168.39 32.1984L168.187 30.5493L170.496 30.2653L168.879 17.12L166.57 17.404L166.367 15.755L172.964 14.9435L173.166 16.5925L170.858 16.8765L172.475 30.0219L174.784 29.7378L174.986 31.3869L168.39 32.1984Z" fill="#FF0000"/>
<path d="M184.393 15.5273L185.717 30.279L183.731 30.4572L182.407 15.7055L177.159 16.1764L177.002 14.427L189.484 13.3069L189.641 15.0563L184.393 15.5273Z" fill="#FF0000"/>
<path d="M194.884 29.5006L193.999 12.9569L204.096 12.4163L204.189 14.1703L196.083 14.6042L196.38 20.1504L204.012 19.7418L204.106 21.4957L196.474 21.9043L196.781 27.6401L204.887 27.2061L204.981 28.9601L194.884 29.5006Z" fill="#FF0000"/>
<path d="M231.131 14.6074L231.013 14.6066L229.593 17.3736L225.578 24.5608L221.665 17.3172L220.285 14.5302L220.166 14.5294L220.067 28.4855L218.12 28.4717L218.238 11.9047L220.897 11.9236L225.58 20.8817L225.699 20.8826L230.533 11.9922L233.096 12.0104L232.978 28.5774L231.032 28.5636L231.131 14.6074Z" fill="#FF0000"/>
<path d="M241.586 28.8061L242.442 12.2609L252.54 12.7833L252.449 14.5374L244.342 14.1179L244.055 19.6646L251.688 20.0595L251.597 21.8136L243.965 21.4187L243.668 27.1551L251.775 27.5745L251.684 29.3286L241.586 28.8061Z" fill="#FF0000"/>
<path d="M269.273 31.0807C267.18 30.8583 265.627 29.9771 264.613 28.4372C263.601 26.8816 263.242 24.7191 263.536 21.9497C263.831 19.1803 264.639 17.118 265.96 15.7626C267.283 14.3916 268.991 13.8172 271.084 14.0396C272.469 14.1868 273.592 14.6244 274.453 15.3525C275.331 16.0822 275.968 17.049 276.365 18.2528L274.657 19.05C274.417 18.1652 273.985 17.4351 273.362 16.8596C272.741 16.2685 271.919 15.9185 270.896 15.8098C270.188 15.7346 269.536 15.8006 268.942 16.0079C268.362 16.2169 267.849 16.5522 267.402 17.0139C266.973 17.4616 266.619 18.0207 266.341 18.6913C266.065 19.3462 265.881 20.0984 265.791 20.9481L265.53 23.4028C265.349 25.1022 265.602 26.4736 266.286 27.5171C266.971 28.5605 268.029 29.1583 269.461 29.3105C270.515 29.4226 271.425 29.2487 272.19 28.789C272.957 28.3135 273.553 27.6449 273.979 26.7831L275.455 27.9425C274.812 29.0517 273.966 29.8927 272.919 30.4657C271.873 31.0229 270.658 31.2279 269.273 31.0807Z" fill="#FF0000"/>
<path d="M290.928 33.627L290.017 28.5438L283.4 27.5412L281.024 32.1266L279.03 31.8244L287.237 16.3115L289.748 16.6919L292.993 33.9399L290.928 33.627ZM288.227 18.3339L288.11 18.3162L284.132 25.8756L289.788 26.7325L288.227 18.3339Z" fill="#FF0000"/>
<path d="M298.328 34.8649L301.498 18.6036L303.455 18.9851L300.621 33.5224L307.541 34.8712L307.205 36.5952L298.328 34.8649Z" fill="#FF0000"/>
<path d="M310.796 37.3382L314.579 21.2086L316.52 21.664L313.138 36.0835L320.001 37.6935L319.6 39.4035L310.796 37.3382Z" fill="#FF0000"/>
<path d="M347.3 32.8934L347.187 32.857L345.002 35.07L339.014 40.7204L337.457 32.6364L336.977 29.5636L336.864 29.5271L332.579 42.8097L330.727 42.2123L335.813 26.4448L338.343 27.2609L340.121 37.2118L340.234 37.2482L347.514 30.2191L349.954 31.006L344.868 46.7735L343.016 46.176L347.3 32.8934Z" fill="#FF0000"/>
<path d="M351.857 49.2543L358.105 33.9102L367.47 37.7235L366.808 39.3502L359.289 36.2889L357.195 41.4329L364.273 44.3152L363.611 45.9419L356.532 43.0596L354.366 48.3795L361.884 51.4408L361.222 53.0676L351.857 49.2543Z" fill="#FF0000"/>
<path d="M374.039 58.8709L378.843 42.51L380.672 43.5679L376.308 57.414L376.349 57.4378L380.787 52.8483L386.589 46.9913L388.561 48.1324L386.313 56.0458L384.558 62.16L384.62 62.1957L388.943 57.5673L394.56 51.6033L396.327 52.6256L384.352 64.838L382.442 63.7326L384.709 55.5014L386.437 49.4812L386.396 49.4574L381.997 53.9323L375.95 59.9764L374.039 58.8709Z" fill="#FF0000"/>
<path d="M394.326 71.4184L392.78 70.1597L403.239 57.3114L408.356 61.4772C409.485 62.3962 410.108 63.4234 410.224 64.5588C410.353 65.7041 409.938 66.8658 408.979 68.0439C408.21 68.9888 407.354 69.5882 406.413 69.8421C405.494 70.0938 404.531 69.9731 403.525 69.4802L401.855 77.5472L400.106 76.1236L401.822 68.3387L398.821 65.8962L394.326 71.4184ZM403.471 67.4779C404.085 67.9774 404.687 68.2025 405.278 68.1532C405.882 68.1138 406.423 67.7997 406.903 67.2106L407.682 66.2534C408.161 65.6644 408.359 65.0705 408.275 64.4717C408.204 63.8829 407.861 63.3388 407.248 62.8393L403.677 59.9322L399.9 64.5709L403.471 67.4779Z" fill="#FF0000"/>
<path d="M405.412 80.8711L406.648 79.7605L408.202 81.4907L418.054 72.6379L416.499 70.9078L417.735 69.7973L422.177 74.7405L420.941 75.851L419.386 74.1209L409.535 82.9736L411.09 84.7037L409.854 85.8143L405.412 80.8711Z" fill="#FF0000"/>
<path d="M428.07 85.9048L415.352 93.4952L414.33 91.7832L427.049 84.1928L424.348 79.6681L425.856 78.7679L432.279 89.5294L430.771 90.4296L428.07 85.9048Z" fill="#FF0000"/>
<path d="M419.114 99.9682L435.21 96.0477L437.603 105.872L435.897 106.287L433.976 98.4005L428.579 99.7148L430.388 107.141L428.681 107.556L426.873 100.13L421.292 101.49L423.213 109.377L421.506 109.792L419.114 99.9682Z" fill="#FF0000"/>
</svg>
